# xmcd
#
# Track frame offsets:
#	150
#	15197
#	30186
#	39834
#	54859
#	68695
#	82691
#	96734
#	109164
#	123955
#	140916
#	155581
#	173654
#	188167
#	201261
#	220691
#	235981
#	248992
#	269815
#	285231
#	299311
#	300328
#
# Disc length: 4138 seconds
#
# Revision: 0
# Processed by: cddbd v1.5.2PL0 Copyright (c) Steve Scherf et al.
# Submitted via: EasyCDDAExtractor 16.0.6.1
#
DISCID=29102816
DTITLE=패티킴 - History-빛과그림자
DYEAR=1900
DGENRE=Country
TTITLE0=빛과 그림자
TTITLE1=못잊어
TTITLE2=초우
TTITLE3=사랑은
TTITLE4=바닷가에서
TTITLE5=인생은작은배
TTITLE6=밤에 쓰는 편지
TTITLE7=내 작은 가슴에
TTITLE8=슬픈사모
TTITLE9=꽃밭에서(이렇게좋은날)
TTITLE10=안개
TTITLE11=사랑을위해
TTITLE12=어떤 이별
TTITLE13=한줄기 사랑
TTITLE14=아.. 사랑아..
TTITLE15=사랑의 환상
TTITLE16=사랑의 맹세 (TILL)
TTITLE17=훨링(FEELING)
TTITLE18=빛과그림자(노래방)
TTITLE19=못잊어(노래방)
TTITLE20=초우(노래방)
TTITLE21=(노래방)
EXTD=
EXTT0=
EXTT1=
EXTT2=
EXTT3=
EXTT4=
EXTT5=
EXTT6=
EXTT7=
EXTT8=
EXTT9=
EXTT10=
EXTT11=
EXTT12=
EXTT13=
EXTT14=
EXTT15=
EXTT16=
EXTT17=
EXTT18=
EXTT19=
EXTT20=
EXTT21=
PLAYORDER=
